<svg width="156" height="4" viewBox="0 0 156 4" fill="none" xmlns="http://www.w3.org/2000/svg">
<path d="M33.9553 0.813102C48.7728 0.695879 63.5984 0.620521 78.424 0.587029C93.2496 0.553537 107.938 0.564701 122.691 0.61773C131.072 0.648432 139.461 0.690297 147.841 0.746117L148.979 0.173959C129.846 0.28839 110.721 0.430732 91.5961 0.600984C72.4712 0.771236 53.3463 0.969399 34.2215 1.19826C23.4854 1.32665 12.7575 1.46062 2.0214 1.60575C1.39224 1.61412 0.448502 1.66994 0.0935913 1.88206C-0.237121 2.08022 0.375907 2.18349 0.884075 2.17791C20.8155 2.00207 40.7631 1.98533 60.7027 2.13046C80.6422 2.27559 100.566 2.5854 120.465 3.05429C131.645 3.31664 142.816 3.63203 153.972 3.99765C154.577 4.01719 155.577 3.91392 155.899 3.72134C156.254 3.51201 155.593 3.43945 155.109 3.42549C135.258 2.77519 115.359 2.28397 95.4436 1.95463C75.5283 1.62529 55.5807 1.46062 35.6411 1.45783C24.4372 1.45783 13.2334 1.50527 2.02947 1.60575L0.892141 2.17791C20.0089 1.91834 39.1338 1.68948 58.2586 1.48574C77.3835 1.28478 96.5083 1.10895 115.633 0.963817C126.369 0.882877 137.113 0.80752 147.849 0.743326C148.479 0.740535 149.43 0.676342 149.777 0.467016C150.124 0.257689 149.487 0.173959 148.987 0.171168C134.153 0.0762732 119.336 0.0176619 104.51 0.00370678C89.6844 -0.0102483 74.9959 0.0148708 60.2429 0.0846463C51.8622 0.12372 43.4734 0.17675 35.0926 0.243734C34.4635 0.249316 33.5117 0.310719 33.1648 0.520045C32.8341 0.718207 33.4471 0.821475 33.9553 0.815893V0.813102Z" fill="#FFC700"/>
</svg>
